<?xml version="1.0" encoding="UTF-8"?><svg id="Layer_2" xmlns="http://www.w3.org/2000/svg" viewBox="0 0 80 82.5"><defs><style>.cls-1{fill:#fff;}.cls-2{fill:#cc9629;}.cls-3{fill:#fcd370;}</style></defs><g id="Layer_1-2"><circle class="cls-1" cx="19.68" cy="15.3" r="12.28"/><path class="cls-2" d="m19.68,30.59c-8.43,0-15.29-6.86-15.29-15.29S11.25,0,19.68,0s15.29,6.86,15.29,15.29-6.86,15.29-15.29,15.29Zm0-24.55c-5.1,0-9.26,4.15-9.26,9.26s4.15,9.26,9.26,9.26,9.26-4.15,9.26-9.26-4.15-9.26-9.26-9.26Z"/><path class="cls-3" d="m19.91,27.57h0c9.32,0,16.89,7.57,16.89,16.89v8.69H3.02v-8.69c0-9.32,7.57-16.89,16.89-16.89Z"/><path class="cls-2" d="m36.8,56.18H3.02c-1.67,0-3.02-1.35-3.02-3.02v-8.69c0-10.98,8.93-19.91,19.91-19.91s19.91,8.93,19.91,19.91v8.69c0,1.67-1.35,3.02-3.02,3.02Zm-30.77-6.04h27.75v-5.67c0-7.65-6.22-13.87-13.87-13.87s-13.87,6.22-13.87,13.87v5.67Z"/><circle class="cls-3" cx="59.86" cy="15.3" r="12.28"/><path class="cls-2" d="m59.86,30.59c-8.43,0-15.29-6.86-15.29-15.29S51.43,0,59.86,0s15.29,6.86,15.29,15.29-6.86,15.29-15.29,15.29Zm0-24.55c-5.1,0-9.26,4.15-9.26,9.26s4.15,9.26,9.26,9.26,9.26-4.15,9.26-9.26-4.15-9.26-9.26-9.26Z"/><path class="cls-1" d="m60.09,27.57h0c9.32,0,16.89,7.57,16.89,16.89v8.69h-33.79v-8.69c0-9.32,7.57-16.89,16.89-16.89Z"/><path class="cls-2" d="m76.98,56.18h-33.79c-1.67,0-3.02-1.35-3.02-3.02v-8.69c0-10.98,8.93-19.91,19.91-19.91s19.91,8.93,19.91,19.91v8.69c0,1.67-1.35,3.02-3.02,3.02Zm-30.77-6.04h27.75v-5.67c0-7.65-6.22-13.87-13.87-13.87s-13.87,6.22-13.87,13.87v5.67Z"/><circle class="cls-3" cx="39.62" cy="41.62" r="12.28"/><path class="cls-2" d="m39.62,56.92c-8.43,0-15.29-6.86-15.29-15.29s6.86-15.29,15.29-15.29,15.29,6.86,15.29,15.29-6.86,15.29-15.29,15.29Zm0-24.55c-5.1,0-9.26,4.15-9.26,9.26s4.15,9.26,9.26,9.26,9.26-4.15,9.26-9.26-4.15-9.26-9.26-9.26Z"/><path class="cls-3" d="m39.85,53.9h0c9.32,0,16.89,7.57,16.89,16.89v8.69H22.95v-8.69c0-9.32,7.57-16.89,16.89-16.89Z"/><path class="cls-2" d="m56.74,82.5H22.96c-1.67,0-3.02-1.35-3.02-3.02v-8.69c0-10.98,8.93-19.91,19.91-19.91s19.91,8.93,19.91,19.91v8.69c0,1.67-1.35,3.02-3.02,3.02Zm-30.77-6.04h27.75v-5.67c0-7.65-6.22-13.87-13.87-13.87s-13.87,6.22-13.87,13.87v5.67Z"/></g></svg>